<svg xmlns="http://www.w3.org/2000/svg" viewBox="0 0 780 360">
  <defs>
    <style>
      .box { rx: 10; stroke-width: 2; }
      .phase { fill: #E8F4F3; stroke: #0C716B; }
      .phase-future { fill: #CAE6E9; stroke: #1F9A9C; }
      .phase-lbl { font-family: Inter, sans-serif; font-size: 14px; font-weight: 700; fill: #09544F; }
      .item { font-family: Inter, sans-serif; font-size: 11px; fill: #09544F; }
      .timeline { stroke: #09544F; stroke-width: 3; }
      .dot { fill: #09544F; }
      .dot-future { fill: #1F9A9C; }
      .year { font-family: Inter, sans-serif; font-size: 13px; font-weight: 700; fill: #09544F; text-anchor: middle; }
      .arrow-line { stroke: #09544F; stroke-width: 3; fill: none; marker-end: url(#arr2); }
    </style>
    <marker id="arr2" markerWidth="10" markerHeight="7" refX="9" refY="3.5" orient="auto">
      <polygon points="0 0, 10 3.5, 0 7" fill="#09544F"/>
    </marker>
  </defs>

  <!-- Timeline -->
  <line class="arrow-line" x1="30" y1="55" x2="760" y2="55"/>

  <!-- Phase markers -->
  <circle class="dot" cx="120" cy="55" r="8"/>
  <text class="year" x="120" y="30">2025</text>

  <circle class="dot" cx="330" cy="55" r="8"/>
  <text class="year" x="330" y="30">2026</text>

  <circle class="dot" cx="540" cy="55" r="8"/>
  <text class="year" x="540" y="30">2027</text>

  <circle class="dot-future" cx="720" cy="55" r="8"/>
  <text class="year" x="720" y="30">2028+</text>

  <!-- Phase 1: Test at scale -->
  <rect class="box phase" x="40" y="80" width="210" height="125"/>
  <text class="phase-lbl" x="60" y="103">Test at scale</text>
  <text class="item" x="60" y="125">MoH feedback from 20+ countries</text>
  <text class="item" x="60" y="143">Identify what works well</text>
  <text class="item" x="60" y="161">Prioritize improvements</text>
  <line x1="145" y1="63" x2="145" y2="80" stroke="#09544F" stroke-width="1.5"/>

  <!-- Phase 2: Learn & refine -->
  <rect class="box phase" x="265" y="80" width="210" height="125"/>
  <text class="phase-lbl" x="285" y="103">Learn and refine</text>
  <text class="item" x="285" y="125">Smarter AI responses</text>
  <text class="item" x="285" y="143">Clearer interface</text>
  <text class="item" x="285" y="161">Guided workflows</text>
  <text class="item" x="285" y="179">New data sources (LMIS, MPDSR)</text>
  <line x1="370" y1="63" x2="370" y2="80" stroke="#09544F" stroke-width="1.5"/>

  <!-- Phase 3: Scale & automate -->
  <rect class="box phase-future" x="490" y="80" width="270" height="125"/>
  <text class="phase-lbl" x="510" y="103">Scale and automate</text>
  <text class="item" x="510" y="125">AI agents for automated monitoring</text>
  <text class="item" x="510" y="143">Integrated cross-system data</text>
  <text class="item" x="510" y="161">Country self-service configuration</text>
  <text class="item" x="510" y="179">Demand-side data integration</text>
  <line x1="625" y1="63" x2="625" y2="80" stroke="#1F9A9C" stroke-width="1.5"/>

  <!-- Bottom bar: guiding principle -->
  <rect class="box" x="40" y="230" width="720" height="40" fill="#09544F" stroke="#073B38" rx="10"/>
  <text font-family="Inter, sans-serif" font-size="14px" font-weight="600" fill="#fff" text-anchor="middle" x="400" y="255">Country teams shape the roadmap — built from real user feedback</text>
</svg>
